<?xml version="1.0" encoding="UTF-8"?>
<svg id="_Слой_4" data-name="Слой 4" xmlns="http://www.w3.org/2000/svg" viewBox="0 0 1024 1024">
  <defs>
    <style>
      .cls-1 {
        fill: #2f2f2f;
      }

      .cls-1, .cls-2 {
        stroke-width: 0px;
      }

      .cls-2 {
        fill: #ff6612;
      }
    </style>
  </defs>
  <path class="cls-2" d="M767.03,480.78l226.3,358.65c15.25,24.17-2.06,55.67-30.63,55.76l-225.47.74c-6.5.02-10.52-7.09-7.15-12.65l54.57-90.1c10.03-16.51,5.74-37.95-9.87-49.33h0c-17.11-12.47-41.16-8.15-52.86,9.49l-74.86,112.88c-19.13,28.85-57.61,37.46-87.22,19.54h0c-30.81-18.65-40.39-58.91-21.29-89.44l197.3-315.48c7.2-11.51,23.95-11.54,31.2-.06Z"/>
  <path class="cls-1" d="M683.9,419.45l-289.57,458.19c-6.54,10.36-17.77,16.79-29.95,17.25v.08h-222l-23-.06-50.72-.14c-34.33-.09-55.15-37.9-36.88-66.96L453.02,158.13c19.12-30.39,59.42-39.23,89.5-19.62,29.35,19.13,37.97,58.25,19.38,87.94l-307.25,489.62c-14.44,23,2.1,52.9,29.26,52.9h9.3c11.87,0,22.92-6.1,29.24-16.16l252.57-401.68c19.12-30.39,59.42-39.23,89.5-19.62,29.35,19.13,37.97,58.25,19.38,87.94Z"/>
</svg>